<?xml version="1.0" standalone="no"?>
<!DOCTYPE svg PUBLIC "-//W3C//DTD SVG 20010904//EN"
 "http://www.w3.org/TR/2001/REC-SVG-20010904/DTD/svg10.dtd">
<svg version="1.0" xmlns="http://www.w3.org/2000/svg"
 width="1000.000000pt" height="818.000000pt" viewBox="0 0 1000.000000 818.000000"
 preserveAspectRatio="xMidYMid meet">

<g transform="translate(0.000000,818.000000) scale(0.100000,-0.100000)"
fill="#000000" stroke="none">
<path d="M2175 8155 c-16 -14 -39 -28 -50 -31 -41 -13 -256 -107 -252 -111 2
-2 56 19 119 47 64 27 122 50 130 50 8 0 102 -22 209 -50 197 -50 289 -62 289
-37 0 21 34 47 59 47 33 0 61 -18 61 -40 0 -26 -7 -25 -34 6 -19 22 -26 25
-43 16 -11 -6 -23 -26 -27 -43 -11 -57 -8 -55 -293 -170 -94 -38 -179 -69
-188 -69 -9 0 -69 13 -133 29 -64 16 -136 32 -160 36 -37 6 -41 5 -36 -10 9
-22 -145 -175 -175 -175 -31 0 -37 27 -16 79 9 25 22 65 27 88 7 31 15 43 31
46 19 4 18 4 -4 6 -15 0 -32 7 -38 14 -16 20 8 37 117 82 51 21 91 39 89 41
-2 2 -48 -14 -103 -36 l-99 -40 -20 26 c-59 74 -103 118 -132 130 -42 18 -145
18 -186 0 -34 -14 -187 -156 -169 -156 24 0 100 61 106 86 5 18 21 32 59 50
71 33 146 33 202 -1 76 -44 134 -168 119 -253 -8 -46 -46 -115 -78 -139 l-24
-19 96 -42 c69 -29 121 -44 179 -51 44 -6 96 -17 115 -25 l33 -14 -31 -1 c-26
-1 -34 -7 -45 -33 -8 -18 -13 -37 -11 -42 2 -5 -3 -6 -10 -3 -49 20 -51 20
-46 6 3 -8 25 -21 49 -30 24 -9 45 -24 47 -33 8 -40 -65 -208 -100 -230 -23
-14 -32 -2 -18 23 12 24 3 27 -24 6 -37 -28 -38 -2 -1 31 49 43 42 60 -21 57
-27 -2 -56 0 -64 4 -18 7 -36 12 -70 18 -14 2 -50 12 -80 21 -30 9 -78 17
-106 18 -60 3 -150 33 -181 59 -12 11 -33 20 -47 20 -15 0 -26 3 -26 7 0 14
-49 30 -56 18 -5 -7 -10 -6 -15 4 -10 18 -64 18 -63 1 1 -7 2 -27 3 -44 1 -22
16 -46 57 -89 77 -81 115 -105 249 -155 121 -46 204 -65 291 -65 55 0 144 26
144 42 0 6 6 8 14 5 26 -10 71 56 106 152 18 51 39 95 46 98 7 3 46 1 86 -5
41 -5 74 -5 76 -1 2 5 17 9 33 9 16 0 29 5 29 11 0 5 5 7 10 4 6 -3 10 -1 10
5 0 6 5 8 12 4 6 -4 8 -3 4 4 -3 6 -2 14 4 17 6 4 8 15 5 26 -5 14 -2 19 13
19 10 0 43 24 73 53 30 28 111 105 181 170 108 100 132 118 155 115 15 -2 29
-10 31 -18 1 -9 -72 -115 -164 -235 -92 -121 -158 -212 -147 -202 11 10 53 61
94 113 41 53 100 129 131 170 32 40 73 95 90 122 18 27 46 68 62 91 22 32 26
45 18 53 -17 17 -15 28 4 28 14 0 16 10 12 60 -6 83 -24 100 -110 105 -46 2
-92 13 -155 39 -84 33 -98 36 -194 36 -95 -1 -106 -3 -134 -25z m89 -16 c-20
-19 -88 -34 -107 -22 -10 6 76 40 108 42 19 1 19 1 -1 -20z m142 -8 c16 -5 66
-17 112 -27 45 -9 82 -20 82 -24 0 -4 -11 -17 -24 -30 -23 -21 -26 -21 -41 -6
-15 14 -15 16 -1 16 22 0 20 20 -1 21 -10 1 -22 1 -27 0 -5 -1 -22 3 -38 8
-16 6 -26 6 -23 1 3 -5 -3 -11 -12 -14 -10 -2 -3 -3 14 -1 18 2 35 0 37 -4 3
-4 -10 -8 -29 -9 -18 -2 -36 2 -40 8 -3 5 -16 10 -28 10 -16 0 -18 3 -9 12 8
8 15 8 25 0 8 -7 17 -9 21 -5 8 8 -49 33 -75 33 -10 0 -21 5 -24 10 -8 12 42
13 81 1z m-64 -25 c10 -7 15 -16 12 -19 -9 -8 -44 11 -44 23 0 13 12 12 32 -4z
m276 -230 c4 -21 -55 -80 -247 -246 -103 -89 -141 -116 -166 -118 -18 -2 -84
9 -147 23 -62 15 -167 38 -233 51 -66 14 -124 30 -130 36 -13 13 169 188 195
188 32 0 70 -19 70 -35 0 -8 -7 -15 -16 -15 -8 0 -13 -4 -10 -9 4 -5 -8 -21
-24 -35 -17 -14 -30 -28 -29 -32 0 -4 -4 -10 -9 -13 -5 -3 -12 -16 -16 -28 -8
-24 14 -34 112 -53 48 -9 58 -7 95 13 56 30 107 69 102 77 -5 9 52 37 91 45 6
2 24 11 38 20 21 14 24 20 14 27 -9 6 -6 7 10 3 15 -4 22 -2 22 7 0 8 10 14
22 15 12 1 41 16 66 34 86 62 183 84 190 45z"/>
<path d="M1290 7995 c-19 -23 -8 -50 22 -53 22 -3 29 2 34 22 3 14 3 30 -1 35
-9 16 -41 13 -55 -4z"/>
<path d="M1130 7901 c0 -5 6 -16 14 -23 15 -16 49 -90 59 -130 6 -24 2 -30
-40 -59 -97 -65 -134 -114 -146 -194 -6 -39 -6 -38 11 10 34 96 71 140 146
173 24 10 32 10 46 -3 21 -19 213 -48 259 -40 24 5 30 9 21 15 -10 6 -4 16 24
40 44 39 46 52 4 45 -29 -5 -30 -4 -17 12 7 10 10 15 5 11 -5 -4 -16 -3 -26 2
-9 5 -32 12 -51 15 -18 3 -36 9 -39 13 -3 4 -16 8 -29 10 -13 1 -32 13 -43 27
-11 14 -26 25 -35 25 -8 0 -45 14 -83 30 -75 33 -80 34 -80 21z"/>
<path d="M1285 7890 c3 -5 8 -10 11 -10 2 0 4 5 4 10 0 6 -5 10 -11 10 -5 0
-7 -4 -4 -10z"/>
<path d="M2141 7360 c9 -5 36 -12 60 -15 42 -5 41 -4 -11 10 -65 17 -70 17
-49 5z"/>
<path d="M2268 7343 c7 -3 16 -2 19 1 4 3 -2 6 -13 5 -11 0 -14 -3 -6 -6z"/>
<path d="M8301 7205 c-36 -42 -50 -43 -137 -10 -107 40 -98 28 16 -22 58 -25
108 -51 112 -57 11 -16 3 -31 -16 -30 -16 2 -16 0 -1 -22 l15 -24 -35 17 c-26
13 -41 14 -52 7 -15 -9 -151 -196 -293 -401 -28 -40 -53 -73 -56 -73 -4 0 0
10 8 23 8 12 39 59 68 105 29 45 57 82 61 82 5 0 9 4 9 10 0 5 13 32 29 59 20
33 26 51 18 54 -8 3 -5 12 8 27 l20 23 -22 -14 c-24 -15 -38 -39 -23 -39 6 0
10 -5 10 -11 0 -6 -10 -8 -22 -5 -13 3 -17 3 -10 0 19 -9 14 -21 -12 -26 -17
-4 -23 -1 -19 9 3 7 -1 13 -8 13 -7 0 -9 3 -5 8 4 4 12 7 17 7 5 0 8 5 7 10
-2 6 -6 9 -10 8 -5 -2 -8 1 -8 7 0 6 5 10 10 10 6 0 10 6 10 14 0 7 11 21 24
29 16 11 23 25 22 42 -2 37 -26 28 -51 -19 -11 -22 -41 -62 -66 -90 -25 -28
-61 -73 -79 -101 -19 -27 -36 -52 -40 -55 -3 -3 -61 -78 -128 -168 -137 -183
-166 -205 -40 -30 281 389 348 485 348 499 0 9 16 39 35 65 51 72 61 94 21 51
-19 -21 -47 -64 -62 -95 -33 -69 -186 -295 -264 -392 -53 -64 -182 -248 -209
-297 -13 -23 -29 -39 -35 -37 -6 2 -26 31 -44 64 -18 33 -35 60 -37 60 -9 0
46 -122 70 -153 44 -58 70 -61 123 -12 74 66 123 65 159 -3 10 -20 35 -52 55
-72 42 -41 56 -81 38 -114 -8 -16 -9 -33 -3 -57 5 -19 6 -45 3 -59 -7 -25 -7
-25 -11 5 l-4 30 -83 -2 c-106 -3 -120 -10 -92 -45 15 -19 33 -28 70 -33 49
-7 61 -17 39 -31 -16 -9 -187 -42 -289 -55 -46 -5 -90 -15 -97 -21 -20 -16
-16 -55 8 -79 14 -14 19 -29 16 -47 -3 -16 2 -32 14 -45 23 -25 24 -37 3 -37
-44 0 -314 224 -314 261 0 9 13 34 30 55 133 175 140 191 156 368 7 83 11 152
9 154 -5 5 -12 -43 -24 -172 -8 -98 -14 -119 -50 -192 -27 -54 -53 -91 -74
-105 -17 -13 -36 -30 -41 -38 -5 -8 -19 -24 -31 -35 -11 -12 -59 -70 -105
-129 -47 -60 -104 -132 -127 -160 -24 -29 -51 -65 -62 -80 -32 -48 -196 -246
-200 -241 -11 11 301 410 318 406 7 -1 9 2 6 9 -4 6 4 23 17 37 27 31 72 90
108 142 43 63 -7 11 -67 -69 -73 -97 -186 -240 -288 -367 -112 -138 -146 -187
-195 -279 -52 -96 -98 -165 -110 -165 -6 0 -42 21 -82 47 -141 90 -576 287
-692 313 -26 6 -72 24 -102 41 -30 17 -57 30 -59 27 -11 -11 111 -71 177 -88
40 -10 118 -39 173 -63 443 -198 488 -221 550 -287 l30 -32 -49 26 c-27 14
-57 26 -67 26 -11 0 -19 5 -19 10 0 6 -5 10 -11 10 -5 0 -7 -6 -3 -12 4 -7 -2
-5 -13 5 -11 9 -22 14 -26 11 -3 -4 -14 -3 -24 1 -10 5 -21 7 -25 7 -5 -1 -8
1 -8 5 0 5 -12 9 -28 9 -15 1 -49 12 -77 25 -27 13 -54 22 -59 21 -5 -2 -12 1
-15 5 -10 14 -71 45 -71 36 0 -4 -4 -2 -9 5 -5 9 -34 14 -87 16 -87 2 -110 11
-163 65 -20 20 -48 45 -61 56 -24 18 -24 20 -5 23 11 2 24 8 30 13 5 5 -22 6
-68 3 l-76 -7 -88 50 c-48 28 -101 54 -118 58 l-30 9 35 6 35 7 -30 2 c-43 2
-55 18 -55 71 0 25 -4 51 -8 58 -8 12 -5 -199 3 -224 2 -6 24 -17 50 -24 47
-13 48 -14 92 -109 146 -313 183 -510 200 -1060 l6 -221 -104 -2 c-57 -1 -132
-1 -167 -1 l-63 1 -4 224 c-14 627 -34 827 -114 1158 l-27 115 -165 6 c-90 3
-170 7 -178 8 -11 1 -13 15 -8 67 6 76 -2 78 -14 2 -5 -29 -13 -54 -19 -56 -5
-2 -8 -8 -5 -12 3 -5 12 -7 20 -3 8 3 15 0 15 -6 0 -6 11 -11 25 -11 26 0 34
-15 13 -23 -10 -3 -10 -8 1 -18 12 -12 13 -12 7 1 -5 9 -2 8 7 -2 8 -10 26
-19 41 -20 14 -1 26 -6 26 -10 0 -4 30 -8 68 -9 122 -1 116 -17 -8 -20 -412
-7 -555 -14 -555 -28 0 -10 -11 -15 -34 -15 -30 -1 -35 -6 -50 -42 -9 -22 -21
-39 -27 -37 -7 2 -11 -4 -10 -14 1 -14 -6 -18 -30 -18 -17 0 -39 -7 -49 -15
-17 -13 -18 -13 -10 0 8 13 6 13 -8 1 -9 -7 -14 -17 -11 -22 3 -5 3 -9 -1 -9
-3 0 -10 10 -15 23 -6 16 -9 18 -9 5 -1 -14 -8 -17 -31 -14 -20 2 -30 -1 -30
-10 0 -17 -20 -19 -20 -1 0 6 -5 4 -11 -6 -6 -9 -14 -15 -20 -12 -5 3 -17 1
-26 -5 -14 -9 -14 -10 -2 -7 9 3 16 -1 16 -9 0 -7 -4 -11 -9 -8 -4 3 -8 1 -8
-4 0 -6 -8 -9 -17 -8 -11 0 -17 -5 -15 -13 2 -10 -5 -12 -31 -7 -18 3 -37 3
-41 -1 -4 -4 -24 -9 -44 -10 -21 -1 -42 -10 -49 -19 -10 -14 -13 -15 -13 -3
-1 10 -5 9 -18 -6 -12 -14 -29 -20 -60 -19 -25 0 -46 -5 -50 -13 -11 -19 -52
-5 -45 15 4 14 3 14 -5 3 -5 -7 -14 -11 -19 -8 -6 4 -19 0 -29 -8 -10 -8 -29
-15 -41 -15 -12 0 -25 -5 -28 -10 -4 -6 -11 -8 -16 -4 -6 3 -21 -4 -34 -16
-13 -12 -28 -19 -34 -16 -6 4 -21 0 -34 -9 -24 -15 -24 -15 -30 19 -9 54 1 73
57 104 75 43 722 298 788 312 56 11 102 8 165 -11 29 -9 38 -6 105 39 40 27
83 53 96 57 13 4 21 9 19 12 -8 7 -85 -29 -132 -61 -39 -27 -43 -28 -130 -21
-54 4 -109 2 -138 -4 -45 -11 -201 -69 -432 -162 -55 -23 -116 -47 -135 -55
-19 -7 -78 -31 -131 -54 -53 -22 -101 -40 -107 -40 -5 0 -17 30 -27 68 -23 95
-44 168 -114 398 -33 111 -66 226 -72 255 -12 59 -34 107 -24 52 21 -111 -197
-256 -379 -252 l-61 2 55 7 c66 9 134 36 125 50 -3 5 -2 10 2 10 5 0 10 14 11
30 2 20 -2 30 -12 30 -8 0 -16 5 -18 10 -2 6 -35 13 -73 16 -135 12 -237 51
-243 92 -2 15 7 31 27 48 17 14 31 32 31 39 0 8 9 23 20 33 27 25 17 32 -80
61 -41 13 -91 29 -110 36 -35 12 -60 10 -60 -5 0 -4 30 -23 66 -41 126 -65
160 -125 48 -85 -108 38 -167 26 -143 -27 7 -15 28 -37 48 -49 62 -39 101 -79
101 -104 0 -14 11 -57 25 -97 14 -39 41 -130 60 -202 19 -71 47 -168 61 -215
14 -47 39 -139 55 -205 77 -310 162 -485 277 -570 63 -47 155 -90 221 -104
108 -23 280 20 531 134 58 26 158 69 223 95 l117 48 -5 -47 c-31 -256 -45
-418 -45 -508 0 -101 11 -177 28 -187 4 -2 52 -7 107 -10 118 -8 133 -17 112
-67 -33 -81 -186 -808 -187 -893 0 -52 8 -24 29 94 17 99 74 375 125 615 24
109 46 176 56 170 6 -4 10 -12 10 -20 0 -7 7 -16 16 -19 23 -9 26 -8 18 7 -5
7 -1 7 10 -2 10 -8 27 -15 38 -16 11 -1 23 -7 27 -14 4 -7 12 -11 17 -9 5 2
20 -5 34 -15 22 -16 21 -22 -5 -18 -5 1 3 -9 19 -23 17 -15 29 -35 29 -51 0
-13 3 -23 7 -20 13 8 49 -92 38 -103 -6 -6 -6 -12 3 -17 8 -6 10 -4 4 6 -5 8
-5 11 0 7 4 -4 8 -36 9 -72 0 -35 4 -68 9 -72 4 -4 7 -22 7 -40 0 -23 5 -33
20 -37 11 -3 20 -11 20 -17 0 -9 -3 -10 -14 -1 -11 9 -12 6 -8 -16 2 -16 9
-34 15 -40 6 -9 6 -13 -2 -13 -7 0 -11 -15 -9 -40 1 -30 6 -39 16 -35 10 3 12
0 8 -10 -5 -13 -2 -14 17 -5 21 11 21 10 -2 -9 -21 -19 -16 -27 13 -22 5 1 5
-4 -1 -11 -6 -7 -10 -25 -9 -40 1 -16 -1 -28 -5 -28 -4 0 -5 -10 -1 -22 4 -16
2 -19 -9 -13 -11 6 -12 5 -1 -6 14 -16 17 -63 2 -54 -5 3 -10 0 -10 -8 0 -21
12 -28 26 -16 10 9 12 3 10 -25 -2 -20 0 -39 5 -42 5 -3 9 -12 9 -20 0 -8 -4
-13 -9 -10 -5 4 -8 -2 -6 -11 1 -10 9 -17 18 -17 17 2 12 -25 -7 -38 -6 -4 -5
-13 5 -24 9 -11 9 -15 2 -10 -7 4 -13 2 -13 -3 0 -6 5 -11 12 -11 6 0 8 -3 5
-7 -4 -3 1 -12 11 -19 12 -10 13 -13 3 -14 -11 0 -11 -3 -1 -15 7 -9 10 -18 6
-22 -3 -3 -6 -1 -6 6 0 7 -4 9 -10 6 -15 -9 -12 -38 3 -32 8 3 13 -5 14 -22 2
-23 1 -24 -7 -6 -8 18 -9 17 -9 -7 -1 -16 -4 -27 -8 -27 -23 4 -32 -3 -26 -18
5 -12 2 -15 -10 -10 -9 3 -18 2 -18 -3 -3 -20 -5 -25 -16 -45 -10 -17 -12 -17
-13 -3 0 9 5 19 10 21 6 3 5 4 -2 3 -7 -1 -23 -18 -35 -37 -13 -19 -27 -39
-31 -45 -19 -22 -31 -52 -24 -58 3 -4 -1 -4 -11 0 -10 3 -17 1 -17 -6 0 -6 -4
-8 -10 -5 -5 3 -10 1 -10 -5 0 -6 -4 -8 -10 -5 -5 3 -10 -1 -10 -9 0 -9 -6
-16 -14 -16 -8 0 -16 -7 -20 -15 -3 -8 -10 -15 -16 -15 -6 0 -8 6 -5 12 4 7
-5 1 -18 -14 -14 -15 -27 -22 -29 -16 -2 6 -11 4 -21 -7 -10 -10 -26 -15 -37
-12 -13 3 -20 0 -20 -10 0 -8 -4 -12 -9 -9 -5 3 -14 -1 -21 -9 -7 -8 -16 -12
-21 -10 -4 3 -31 -10 -59 -30 -27 -19 -54 -35 -60 -35 -5 0 -10 -4 -10 -8 0
-4 -13 -16 -30 -25 -16 -10 -30 -25 -30 -33 0 -8 -5 -14 -11 -14 -5 0 -7 -5
-3 -12 4 -6 3 -9 -2 -5 -12 7 -38 -13 -47 -36 -3 -9 -12 -16 -19 -15 -7 2 -12
-2 -13 -7 0 -11 -13 -29 -52 -71 -12 -13 -19 -24 -16 -24 3 0 -6 -10 -21 -21
-15 -12 -25 -24 -22 -26 3 -3 -7 -18 -22 -34 -37 -39 -46 -50 -67 -84 -20 -31
-31 -45 -64 -82 -10 -12 -17 -24 -14 -27 3 -3 -2 -8 -11 -12 -9 -3 -14 -10
-11 -14 3 -5 -4 -11 -15 -15 -11 -3 -20 -13 -20 -21 0 -8 -5 -14 -11 -14 -5 0
-8 -4 -4 -9 3 -6 -4 -15 -15 -21 -11 -6 -20 -17 -20 -24 0 -7 -12 -23 -26 -37
-15 -13 -34 -42 -44 -65 -14 -32 -23 -41 -41 -40 -14 1 -23 -4 -21 -11 1 -8
-8 -13 -23 -13 -22 0 -27 8 -46 71 -36 117 -19 169 105 324 40 50 130 164 201
254 71 91 173 211 226 268 70 74 101 116 113 149 22 64 97 534 86 534 -6 0
-22 -89 -65 -363 -28 -175 -50 -218 -189 -364 -46 -49 -116 -131 -157 -183
-41 -52 -106 -135 -144 -184 -39 -49 -87 -110 -108 -134 -87 -102 -115 -200
-82 -292 26 -73 21 -94 -52 -199 -36 -53 -59 -90 -50 -82 10 7 37 43 62 80 58
85 83 117 88 111 17 -19 77 -123 77 -133 1 -15 27 -46 64 -75 34 -26 33 -27
-28 -6 -26 9 -48 15 -49 13 -1 -2 -12 -18 -25 -36 -12 -18 -22 -38 -22 -44 0
-23 48 -75 88 -94 36 -18 40 -23 35 -47 -8 -39 1 -35 24 10 11 20 36 65 55 99
20 34 33 65 30 69 -4 4 4 4 18 0 69 -18 168 -18 223 -1 71 22 113 58 195 165
150 195 265 341 356 450 214 255 281 392 312 640 3 25 14 92 25 150 12 58 23
123 25 145 2 22 11 59 19 81 9 23 15 46 14 50 -1 5 -1 16 0 24 1 12 3 13 10 1
5 -7 7 -28 4 -45 -3 -20 -1 -28 5 -21 5 6 15 57 22 115 6 58 25 157 42 220 17
63 34 133 40 155 17 78 80 260 94 276 19 21 59 13 77 -15 7 -11 19 -37 27 -56
7 -19 35 -87 61 -150 46 -112 75 -205 103 -340 17 -81 67 -242 73 -236 3 2 -9
46 -25 98 -35 109 -57 231 -46 256 6 15 12 78 17 205 1 20 4 37 7 37 3 0 6 14
7 30 2 29 30 100 44 110 3 3 9 15 13 28 4 12 12 22 17 22 6 0 8 4 4 9 -3 5 4
12 15 16 11 3 20 11 20 16 0 13 91 119 102 119 5 0 32 23 59 50 64 64 144 123
189 140 43 16 61 37 55 64 -8 34 8 46 86 66 40 11 79 27 86 37 22 29 16 299
-12 523 -10 79 -2 80 142 17 263 -115 396 -124 572 -40 125 59 171 112 629
713 81 107 185 242 230 300 61 78 78 106 68 112 -8 4 -11 18 -9 32 3 13 -5 45
-16 71 -41 92 -27 124 74 170 112 51 170 59 264 35 55 -15 85 -18 102 -11 14
5 64 63 114 131 50 67 111 148 136 179 25 32 95 130 156 217 61 87 137 188
169 224 33 36 73 83 89 104 28 37 29 39 10 53 -38 28 -107 66 -158 87 -29 12
-83 39 -120 60 l-68 38 -28 -31 c-15 -17 -33 -31 -39 -31 -7 0 -12 -7 -12 -15
0 -19 -27 -19 -46 -1 -7 8 -19 16 -26 18 -14 5 37 92 73 124 20 18 21 18 60
-4 21 -12 39 -18 39 -12 0 5 17 -7 38 -27 46 -47 136 -107 140 -94 5 16 85
-21 127 -58 40 -36 32 -19 -14 32 -23 25 -26 37 -26 99 l0 70 -45 24 c-25 13
-40 23 -35 23 6 1 23 -6 38 -14 39 -20 30 -2 -13 27 -19 13 -43 40 -52 60 -19
40 -62 78 -87 77 -13 0 -14 -1 -1 -6 32 -12 70 -45 70 -61 0 -12 -8 -9 -32 14
-30 26 -71 54 -82 54 -2 0 -18 -16 -35 -35z m12 -10 c-3 -9 -8 -14 -10 -11 -3
3 -2 9 2 15 9 16 15 13 8 -4z m217 -255 c11 -6 24 -19 30 -30 9 -16 5 -16 -35
7 -25 13 -45 27 -45 29 0 8 31 4 50 -6z m-444 -113 c-20 -29 -45 -62 -57 -73
-12 -10 3 16 32 58 61 86 80 98 25 15z m-76 -101 c0 -2 -8 -10 -17 -17 -16
-13 -17 -12 -4 4 13 16 21 21 21 13z m20 -15 c0 -5 -7 -12 -16 -15 -14 -5 -15
-4 -4 9 14 17 20 19 20 6z m-56 -33 c-28 -46 -67 -99 -76 -104 -7 -4 8 20 32
54 23 34 45 62 47 62 2 0 1 -6 -3 -12z m-88 -140 c4 -7 4 -10 -1 -6 -4 4 -16
-3 -27 -15 l-19 -22 17 28 c19 31 20 32 30 15z m-5446 -768 c0 -42 23 -94 51
-114 13 -9 19 -16 13 -16 -18 0 -54 31 -69 60 -17 33 -20 100 -5 100 6 0 10
-14 10 -30z m148 -137 c-10 -2 -28 -2 -40 0 -13 2 -5 4 17 4 22 1 32 -1 23 -4z
m3952 -332 c-25 -36 -36 -41 -19 -8 16 31 31 48 37 43 2 -3 -6 -19 -18 -35z
m-2035 5 c19 -3 71 -12 133 -22 15 -3 42 -5 60 -6 17 -1 32 -5 32 -10 0 -5 4
-7 9 -3 6 3 19 -5 30 -17 12 -12 21 -17 21 -12 0 16 41 14 47 -2 6 -15 78 -20
87 -5 3 4 17 6 31 3 21 -4 26 -10 23 -31 -1 -14 2 -27 7 -29 6 -1 10 11 11 28
0 16 -3 30 -6 30 -4 0 -7 7 -7 15 0 8 9 15 19 15 10 0 18 5 18 11 0 15 26 39
34 32 11 -11 7 -24 -5 -17 -7 4 -10 1 -7 -7 3 -8 10 -13 16 -12 12 3 25 -43
17 -57 -4 -6 -1 -10 6 -10 7 0 9 -10 7 -25 -3 -13 -2 -26 3 -27 11 -4 18 -114
8 -130 -7 -10 -9 -10 -9 0 0 6 -7 12 -15 12 -10 0 -15 10 -15 34 0 35 -17 50
-39 36 -9 -5 -6 -9 10 -13 23 -6 23 -6 3 -28 -16 -19 -17 -21 -2 -16 12 4 15
2 12 -8 -9 -24 -40 -13 -42 14 -3 40 -22 91 -34 91 -6 0 -7 -8 -3 -17 12 -32
17 -99 6 -83 -8 12 -13 11 -31 -5 -18 -16 -20 -16 -14 -2 3 10 1 17 -5 17 -6
0 -11 -3 -11 -7 0 -5 -26 -7 -57 -7 -64 1 -82 -4 -62 -17 10 -6 10 -9 2 -9 -7
0 -20 12 -28 28 -9 15 -14 20 -12 12 3 -9 -5 -27 -16 -40 -11 -14 -18 -18 -15
-10 3 8 -6 25 -18 38 l-24 23 0 -22 c0 -12 -3 -19 -7 -15 -4 3 -13 -4 -20 -16
l-12 -23 -1 25 c0 20 -2 22 -10 10 -5 -8 -18 -16 -29 -16 -11 -1 -18 2 -15 7
2 4 12 5 22 2 9 -3 14 -3 10 1 -12 14 -60 14 -65 0 -3 -8 -9 -11 -15 -8 -16
10 -58 12 -58 2 0 -4 -12 0 -27 9 -15 10 -30 17 -33 17 -26 -7 -75 37 -67 60
6 16 -16 40 -26 29 -12 -11 -8 18 15 110 l22 90 60 -6 c34 -4 70 -8 81 -11z
m1047 -36 c15 -19 28 -40 28 -47 0 -7 5 -13 10 -13 6 0 10 -9 10 -20 0 -11 -4
-20 -10 -20 -5 0 -10 -6 -10 -12 0 -22 -48 -70 -61 -62 -7 4 -9 3 -5 -4 4 -6
-3 -12 -16 -14 -13 -2 -22 -9 -20 -16 1 -6 -3 -12 -9 -12 -5 0 -8 -4 -4 -9 3
-5 1 -12 -4 -15 -12 -8 -21 6 -27 39 -2 14 -22 58 -43 97 -61 116 -62 112 11
129 93 22 117 18 150 -21z m-1539 -95 c-3 -9 -8 -14 -10 -11 -3 3 -2 9 2 15 9
16 15 13 8 -4z m383 -151 c18 -14 18 -14 -6 -3 -31 14 -36 19 -24 19 6 0 19
-7 30 -16z m722 -59 c-3 -3 -9 2 -12 12 -6 14 -5 15 5 6 7 -7 10 -15 7 -18z
m-458 -2240 c0 -8 -2 -15 -4 -15 -2 0 -6 7 -10 15 -3 8 -1 15 4 15 6 0 10 -7
10 -15z m-13 -62 c-3 -10 -5 -4 -5 12 0 17 2 24 5 18 2 -7 2 -21 0 -30z m-176
-241 c-8 -15 -8 -22 2 -25 7 -3 5 -6 -5 -6 -10 -1 -18 1 -18 4 0 10 24 55 27
51 3 -2 0 -13 -6 -24z"/>
<path d="M5029 5238 c-5 -11 -4 -70 1 -73 3 -2 7 14 8 36 2 21 0 39 -3 39 -3
0 -5 -1 -6 -2z"/>
<path d="M4935 5121 c-3 -5 -2 -12 3 -15 5 -3 9 1 9 9 0 17 -3 19 -12 6z"/>
<path d="M4792 5080 c-22 -18 -22 -19 -4 -29 12 -6 23 -6 28 -1 5 5 24 10 41
12 17 1 30 5 27 9 -2 4 -20 3 -39 -1 -39 -9 -56 3 -28 19 10 6 14 10 8 10 -5
0 -20 -8 -33 -19z"/>
<path d="M4908 5068 c6 -6 18 -8 28 -6 14 3 12 5 -9 10 -19 3 -25 2 -19 -4z"/>
<path d="M5076 7030 c114 -8 207 -35 280 -82 54 -35 47 -48 -13 -23 -74 32
-149 54 -213 61 -36 5 -67 8 -70 7 -3 -1 -34 -4 -70 -8 -36 -4 -69 -9 -73 -12
-4 -2 -22 -6 -40 -9 -18 -2 -66 -21 -107 -41 -65 -33 -84 -50 -153 -133 -43
-52 -83 -107 -88 -122 -6 -16 -16 -28 -23 -28 -7 0 -18 -6 -24 -12 -7 -7 -20
-13 -30 -13 -13 0 -23 -21 -42 -87 -15 -52 -35 -98 -50 -114 l-25 -28 33 23
c35 24 33 26 51 -44 6 -22 18 -50 27 -63 15 -22 17 -22 34 -7 11 10 21 38 25
72 22 178 83 243 259 274 125 21 308 -10 441 -75 108 -53 165 -120 165 -193 0
-33 52 -141 59 -122 2 8 16 32 31 54 14 22 32 55 39 73 8 17 17 32 21 32 5 0
1 14 -7 32 -21 42 -28 156 -14 243 15 99 2 134 -79 215 -102 103 -204 141
-363 139 l-82 -2 101 -7z"/>
<path d="M4938 7023 c6 -2 18 -2 25 0 6 3 1 5 -13 5 -14 0 -19 -2 -12 -5z"/>
<path d="M4898 7013 c7 -3 16 -2 19 1 4 3 -2 6 -13 5 -11 0 -14 -3 -6 -6z"/>
<path d="M8093 6993 c-15 -5 -17 -23 -4 -23 5 0 11 7 15 15 3 8 4 15 3 14 -1
0 -8 -3 -14 -6z"/>
<path d="M7330 6526 c0 -2 7 -7 16 -10 8 -3 12 -2 9 4 -6 10 -25 14 -25 6z"/>
<path d="M4732 6420 c-27 -26 -28 -64 -2 -90 31 -31 57 -25 79 17 16 31 14 50
-9 73 -25 25 -41 25 -68 0z"/>
<path d="M5077 6422 c-10 -10 -17 -31 -17 -45 0 -29 31 -67 54 -67 16 0 56 46
56 65 0 21 -40 65 -59 65 -10 0 -25 -8 -34 -18z"/>
<path d="M2761 6404 c-16 -13 -48 -54 -70 -89 -62 -98 -92 -106 -181 -50 -30
19 -59 35 -64 35 -6 0 21 -20 58 -45 38 -25 77 -45 87 -45 27 0 86 56 116 109
31 55 52 80 75 92 24 13 58 -22 58 -58 0 -14 3 -24 6 -20 15 14 -7 74 -31 85
-21 10 -29 8 -54 -14z"/>
<path d="M5540 6380 c6 -11 13 -20 16 -20 2 0 0 9 -6 20 -6 11 -13 20 -16 20
-2 0 0 -9 6 -20z"/>
<path d="M4314 6348 c-11 -21 -15 -47 -12 -80 4 -42 12 -56 49 -94 25 -25 60
-50 82 -56 36 -11 58 -28 92 -73 9 -11 3 3 -12 31 -25 47 -32 53 -67 57 -102
14 -166 129 -121 217 9 17 13 30 11 30 -3 0 -13 -14 -22 -32z"/>
<path d="M4896 6339 c-3 -17 -6 -64 -6 -104 0 -72 1 -73 29 -83 49 -17 63 9
60 110 -1 45 -4 89 -6 96 -3 6 -20 12 -38 12 -28 0 -33 -4 -39 -31z"/>
<path d="M2824 6213 c-10 -127 -8 -160 12 -190 8 -12 14 -28 14 -35 0 -23 105
-227 117 -227 19 -1 53 64 53 101 0 55 -62 118 -117 118 -22 0 -50 17 -42 25
3 3 36 -4 73 -15 45 -14 71 -29 82 -46 9 -13 19 -22 22 -19 9 8 -37 52 -66 64
-15 5 -46 15 -70 21 -68 18 -76 38 -68 185 4 69 5 125 3 125 -3 0 -8 -48 -13
-107z"/>
<path d="M2373 6278 c-11 -13 -24 -33 -28 -45 -3 -13 -14 -23 -25 -23 -10 0
-29 -10 -42 -22 -13 -13 -16 -17 -6 -9 9 7 31 16 49 20 25 5 34 14 43 41 6 19
22 40 36 47 15 8 19 13 9 13 -8 0 -25 -10 -36 -22z"/>
<path d="M5571 6263 c0 -12 -4 -30 -7 -40 -5 -17 -5 -17 6 0 6 10 9 28 7 40
-4 22 -4 22 -6 0z"/>
<path d="M7530 6185 c0 -8 2 -15 4 -15 2 0 6 7 10 15 3 8 1 15 -4 15 -6 0 -10
-7 -10 -15z"/>
<path d="M2430 6170 c0 -5 4 -10 9 -10 5 0 37 -27 70 -60 60 -59 61 -60 61
-31 0 21 -8 35 -27 49 -46 32 -113 63 -113 52z"/>
<path d="M7632 6163 c-57 -14 -62 -17 -56 -36 10 -35 17 -37 64 -14 31 14 66
21 112 21 69 1 73 3 62 30 -8 20 -93 20 -182 -1z"/>
<path d="M4981 6140 c-28 -24 -37 -24 -75 -5 -35 19 -52 19 -59 1 -9 -23 30
-49 81 -54 41 -3 53 0 77 20 19 17 26 30 22 41 -8 22 -16 21 -46 -3z"/>
<path d="M5490 6145 c-14 -8 -20 -14 -14 -15 5 0 19 7 30 15 24 18 16 19 -16
0z"/>
<path d="M5383 6118 c-12 -17 -34 -68 -29 -68 3 0 14 15 26 34 15 26 29 36 53
39 32 4 32 4 -4 5 -20 1 -41 -4 -46 -10z"/>
<path d="M2247 6063 c-2 -5 -7 -21 -11 -38 l-7 -30 25 34 c14 19 26 36 26 38
0 6 -29 3 -33 -4z"/>
<path d="M4936 6039 c3 -5 11 -9 19 -9 8 0 16 4 19 9 3 5 -5 9 -19 9 -14 0
-22 -4 -19 -9z"/>
<path d="M4896 6032 c-2 -4 4 -9 15 -9 11 -1 17 2 14 8 -7 11 -22 12 -29 1z"/>
<path d="M4600 6000 c0 -5 5 -10 11 -10 5 0 7 5 4 10 -3 6 -8 10 -11 10 -2 0
-4 -4 -4 -10z"/>
<path d="M4637 5912 c54 -51 132 -89 203 -98 21 -3 7 4 -37 19 -75 26 -124 52
-182 100 -20 16 -12 7 16 -21z"/>
<path d="M5264 5938 l-19 -23 23 19 c21 18 27 26 19 26 -2 0 -12 -10 -23 -22z"/>
<path d="M5180 5884 c-64 -41 -139 -65 -230 -74 -63 -7 -64 -7 -15 -8 97 -3
243 46 289 97 24 27 22 26 -44 -15z"/>
<path d="M4758 5663 c18 -2 45 -2 60 0 15 2 0 4 -33 4 -33 0 -45 -2 -27 -4z"/>
<path d="M5003 5663 c9 -2 25 -2 35 0 9 3 1 5 -18 5 -19 0 -27 -2 -17 -5z"/>
<path d="M4528 5513 c7 -3 16 -2 19 1 4 3 -2 6 -13 5 -11 0 -14 -3 -6 -6z"/>
<path d="M4578 5513 c12 -2 30 -2 40 0 9 3 -1 5 -23 4 -22 0 -30 -2 -17 -4z"/>
<path d="M4155 5270 c-3 -5 -1 -10 4 -10 6 0 11 5 11 10 0 6 -2 10 -4 10 -3 0
-8 -4 -11 -10z"/>
<path d="M7232 4254 c-6 -12 -10 -23 -7 -25 3 -4 -29 -9 -65 -11 -8 -1 -24 2
-35 6 -18 7 -18 6 -2 -4 21 -13 25 -104 5 -98 -7 3 -14 19 -16 36 -3 29 -22
47 -22 21 0 -7 -11 -4 -27 6 -18 12 -28 14 -31 7 -4 -14 -52 -16 -52 -3 0 10
35 21 72 21 15 0 30 5 34 11 5 8 -9 9 -47 5 -30 -3 -69 -2 -87 3 -36 11 -36
12 -10 -42 14 -29 83 -61 156 -73 32 -5 41 -2 66 25 17 17 34 31 39 31 4 0 23
11 42 26 39 30 52 54 25 47 -12 -3 -19 1 -22 14 -4 17 -5 16 -16 -3z"/>
<path d="M5770 3754 c0 -3 13 -52 29 -108 16 -55 48 -175 71 -266 24 -91 67
-255 97 -365 129 -471 125 -454 127 -560 1 -76 -3 -107 -15 -130 l-17 -30 0
38 c0 39 -11 62 -19 39 -4 -10 -8 -10 -20 -1 -12 10 -16 10 -24 -2 -5 -8 -9
-9 -9 -4 0 6 -21 11 -48 11 -26 1 -63 3 -82 4 -67 3 -208 -11 -244 -26 -15 -6
-17 -4 -11 7 7 10 2 9 -17 -3 -18 -12 -28 -14 -30 -6 -3 8 -9 8 -25 0 -11 -6
-35 -14 -53 -17 -18 -3 -38 -9 -44 -13 -6 -3 -15 -7 -21 -8 -5 0 -16 -2 -22
-2 -7 -1 -13 -7 -13 -14 0 -23 -51 -77 -85 -89 -19 -7 -35 -17 -35 -21 0 -4
-3 -7 -7 -7 -5 1 -10 0 -13 -1 -10 -4 -36 -9 -70 -15 -36 -7 -100 -44 -100
-58 0 -5 -4 -6 -9 -2 -11 6 -81 -57 -81 -73 0 -5 -7 -13 -16 -16 -8 -3 -12
-10 -9 -16 3 -6 -1 -17 -9 -26 -9 -8 -16 -12 -17 -7 0 4 -4 -2 -9 -14 -5 -13
-17 -23 -27 -23 -13 0 -19 -9 -20 -31 -3 -39 -8 -45 -28 -29 -12 10 -15 9 -15
-6 0 -11 -9 -30 -20 -44 -11 -14 -20 -29 -20 -35 0 -5 12 8 26 28 14 21 28 37
30 34 15 -14 85 -175 89 -201 2 -17 11 -45 20 -63 9 -17 20 -67 25 -110 14
-120 38 -246 54 -284 8 -19 28 -47 44 -62 l29 -28 7 23 c4 13 7 109 6 213 -1
167 -3 192 -18 204 -15 11 -10 12 36 7 77 -10 81 -12 85 -64 l3 -47 2 47 c2
46 3 47 40 53 64 11 127 34 170 63 57 38 407 359 463 423 65 78 103 136 160
246 46 91 49 101 49 174 0 88 -15 170 -64 344 -42 147 -112 411 -161 605 -56
220 -115 407 -115 364z m-870 -1864 c0 -5 -4 -10 -10 -10 -5 0 -10 5 -10 10 0
6 5 10 10 10 6 0 10 -4 10 -10z"/>
<path d="M4510 3069 c0 -5 5 -7 10 -4 6 3 10 8 10 11 0 2 -4 4 -10 4 -5 0 -10
-5 -10 -11z"/>
<path d="M4711 2629 c0 -15 -14 -98 -31 -185 -30 -158 -37 -216 -19 -159 18
57 60 317 56 343 l-4 27 -2 -26z"/>
<path d="M5295 2571 c7 -39 -19 -69 -162 -191 -255 -218 -294 -273 -299 -415
l-3 -80 8 80 c11 112 38 162 135 255 117 112 308 281 327 288 14 6 14 12 3 47
-8 22 -12 29 -9 16z"/>
<path d="M4632 2215 c-17 -56 -14 -78 4 -30 8 22 13 46 11 55 -2 8 -9 -3 -15
-25z"/>
<path d="M4870 1950 c0 -5 5 -10 10 -10 6 0 10 5 10 10 0 6 -4 10 -10 10 -5 0
-10 -4 -10 -10z"/>
<path d="M4781 1754 c0 -11 3 -14 6 -6 3 7 2 16 -1 19 -3 4 -6 -2 -5 -13z"/>
<path d="M4771 1714 c0 -11 3 -14 6 -6 3 7 2 16 -1 19 -3 4 -6 -2 -5 -13z"/>
<path d="M5233 1335 c0 -33 2 -45 4 -27 2 18 2 45 0 60 -2 15 -4 0 -4 -33z"/>
<path d="M3087 910 c3 -63 9 -140 13 -170 5 -36 6 -15 3 60 -3 63 -9 140 -13
170 -5 36 -6 15 -3 -60z"/>
<path d="M3121 584 c0 -11 3 -14 6 -6 3 7 2 16 -1 19 -3 4 -6 -2 -5 -13z"/>
<path d="M3315 474 c-9 -15 -12 -23 -6 -20 11 7 35 46 28 46 -3 0 -12 -12 -22
-26z"/>
</g>
</svg>
