<?xml version="1.0" standalone="no"?>
<!DOCTYPE svg PUBLIC "-//W3C//DTD SVG 20010904//EN"
 "http://www.w3.org/TR/2001/REC-SVG-20010904/DTD/svg10.dtd">
<svg version="1.0" xmlns="http://www.w3.org/2000/svg"
 width="1000.000000pt" height="818.000000pt" viewBox="0 0 1000.000000 818.000000"
 preserveAspectRatio="xMidYMid meet">

<g transform="translate(0.000000,818.000000) scale(0.100000,-0.100000)"
fill="#000000" stroke="none">
<path d="M8312 7193 c-25 -36 -37 -73 -23 -73 6 0 11 -9 11 -20 0 -11 -7 -20
-15 -20 -9 0 -12 -6 -8 -17 5 -13 3 -15 -13 -9 -61 25 -51 33 -161 -124 -79
-114 -202 -281 -216 -295 -19 -18 36 69 85 136 26 37 48 70 48 75 0 5 9 20 20
34 23 29 26 48 6 31 -16 -14 -42 -5 -51 17 -5 14 -7 14 -15 2 -6 -8 -10 -10
-10 -4 0 6 16 28 35 48 20 22 35 48 35 62 0 41 -26 27 -59 -31 -17 -31 -48
-74 -69 -97 -20 -22 -50 -60 -67 -84 -46 -66 -263 -352 -318 -419 -61 -75 -64
-83 -41 -100 30 -23 53 -18 97 20 69 60 125 58 157 -3 10 -17 36 -52 59 -77
42 -46 53 -89 29 -113 -9 -9 -8 -21 2 -51 14 -43 3 -82 -12 -41 -8 22 -12 22
-76 16 -37 -4 -77 -9 -89 -13 -52 -12 -7 -63 62 -71 51 -5 64 -16 38 -31 -20
-10 -165 -37 -283 -52 -87 -12 -120 -29 -120 -64 0 -14 4 -25 10 -25 17 0 39
-54 29 -71 -6 -12 -3 -22 11 -34 23 -21 26 -35 6 -35 -50 0 -325 232 -313 264
4 9 10 23 13 31 4 10 0 15 -9 15 -18 0 -29 -14 -212 -245 -69 -88 -173 -217
-230 -288 -99 -119 -152 -195 -234 -332 -44 -75 -65 -84 -132 -56 -28 12 -60
23 -70 24 -10 1 -19 5 -19 9 0 4 -12 8 -27 8 -16 0 -59 12 -98 26 -38 14 -86
30 -105 37 -19 6 -47 19 -62 29 -14 10 -32 18 -40 18 -8 0 -19 5 -24 10 -6 6
-41 11 -79 11 -85 1 -102 7 -158 61 -24 24 -52 49 -61 56 -16 13 -16 15 1 28
16 12 9 13 -56 14 -69 0 -79 3 -153 46 -62 36 -151 73 -176 74 -2 0 -2 -21 0
-47 3 -47 3 -47 52 -62 l49 -16 53 -111 c58 -124 114 -288 138 -404 26 -127
46 -361 53 -614 l6 -243 -33 -6 c-18 -4 -93 -7 -166 -7 l-134 0 0 112 c0 171
-18 628 -31 763 -18 206 -38 316 -107 600 l-8 30 -179 2 c-151 1 -175 0 -152
-11 15 -7 24 -15 21 -19 -4 -4 1 -16 10 -26 17 -19 35 -23 171 -36 33 -4 61
-8 63 -9 4 -5 -355 -16 -506 -16 -137 0 -144 -1 -149 -21 -5 -16 -11 -19 -36
-13 -20 4 -27 3 -23 -5 4 -6 3 -11 -3 -11 -6 0 -17 -13 -26 -30 -9 -16 -22
-30 -30 -30 -9 0 -12 -6 -9 -15 5 -13 -6 -20 -28 -16 -4 0 -20 -4 -35 -11 -40
-16 -65 -20 -58 -8 3 5 1 10 -4 10 -6 0 -11 -7 -11 -15 0 -9 -6 -15 -13 -14
-31 4 -47 -2 -47 -18 -1 -16 -2 -16 -15 1 -8 11 -15 14 -15 8 0 -7 -7 -12 -15
-12 -8 0 -15 -9 -15 -20 0 -13 -7 -20 -19 -20 -11 0 -26 -6 -34 -14 -7 -8 -25
-14 -38 -14 -60 -1 -119 -18 -157 -46 -7 -5 -27 -10 -45 -12 -17 -1 -33 -6
-35 -12 -3 -11 -66 -6 -70 7 -3 10 -50 2 -58 -10 -3 -5 -18 -9 -34 -9 -16 0
-32 -4 -35 -10 -3 -5 -15 -10 -26 -10 -11 0 -22 -7 -26 -16 -4 -10 -13 -14
-28 -10 -14 4 -28 0 -35 -9 -21 -25 -31 -6 -30 53 2 67 -19 180 -58 312 -107
360 -147 490 -152 490 -3 0 -12 -13 -21 -29 -43 -75 -207 -161 -319 -167 -36
-1 -54 -1 -40 2 50 10 95 27 113 42 21 19 24 82 3 82 -8 0 -16 4 -18 9 -1 5
-43 14 -93 20 -105 12 -148 23 -192 51 -39 23 -43 53 -10 75 13 8 30 27 37 43
8 15 20 34 27 43 17 20 7 29 -62 51 -134 42 -176 51 -187 40 -8 -8 -5 -14 14
-21 32 -12 141 -81 150 -95 21 -30 -9 -35 -66 -11 -45 19 -122 23 -137 8 -19
-19 14 -59 84 -104 34 -22 67 -50 74 -62 6 -12 15 -21 20 -19 4 2 11 -16 15
-40 4 -24 17 -56 29 -71 l21 -29 -22 7 c-19 6 -22 4 -17 -9 13 -35 122 -408
154 -531 45 -171 96 -338 122 -399 47 -108 147 -218 243 -267 65 -33 165 -51
243 -44 79 7 250 63 455 149 164 69 301 118 308 111 3 -3 -4 -94 -16 -203 -13
-109 -23 -266 -24 -351 -1 -193 -3 -191 136 -191 102 0 116 -7 116 -55 0 -35
18 -65 40 -68 8 -2 21 -6 28 -10 6 -5 16 -6 21 -2 5 3 16 -1 23 -9 8 -7 24
-16 35 -20 15 -5 38 -40 73 -113 42 -86 53 -118 55 -167 5 -93 17 -166 27
-166 5 0 6 -4 3 -10 -3 -6 1 -7 9 -4 9 3 16 1 16 -5 0 -6 -4 -11 -10 -11 -14
0 -13 -37 1 -46 8 -5 8 -8 0 -13 -17 -11 -1 -80 20 -86 20 -7 26 -25 8 -25 -5
0 -7 -5 -4 -10 4 -6 10 -8 15 -5 5 3 6 -6 0 -22 -14 -45 -19 -185 -6 -180 10
4 16 -29 17 -96 0 -15 4 -27 9 -27 6 0 10 -7 10 -15 0 -8 -4 -15 -10 -15 -14
0 -13 -33 2 -48 7 -7 9 -12 5 -12 -4 0 -1 -13 8 -30 19 -36 19 -41 0 -34 -21
9 -19 -10 5 -31 11 -10 17 -22 14 -27 -4 -6 -10 -5 -15 3 -6 10 -9 8 -9 -8 0
-16 -6 -23 -20 -23 -13 0 -18 -5 -14 -15 4 -9 0 -15 -10 -15 -9 0 -16 -4 -16
-9 0 -5 -9 -11 -20 -14 -11 -3 -20 -11 -20 -19 0 -10 2 -10 10 2 5 8 12 11 15
8 4 -4 -3 -15 -14 -25 -12 -9 -21 -26 -21 -36 0 -10 -6 -17 -12 -16 -27 3 -36
-2 -43 -23 -4 -13 -7 -26 -6 -30 0 -4 -6 -5 -14 -2 -8 4 -15 1 -15 -6 0 -6 -4
-9 -8 -6 -5 3 -23 -11 -41 -31 -17 -19 -34 -33 -38 -30 -3 4 -15 1 -27 -5 -11
-7 -24 -11 -28 -10 -3 1 -12 -5 -18 -13 -7 -8 -23 -15 -36 -15 -13 0 -24 -3
-24 -8 0 -4 -25 -18 -55 -31 -30 -13 -62 -32 -71 -42 -9 -11 -23 -19 -29 -19
-11 0 -175 -156 -175 -166 0 -2 -8 -12 -17 -22 -32 -33 -68 -76 -92 -110 -13
-19 -33 -44 -45 -56 -11 -13 -29 -34 -39 -47 -10 -13 -31 -41 -47 -63 -17 -21
-30 -42 -30 -45 0 -3 -18 -26 -40 -51 -64 -72 -68 -77 -84 -108 -8 -16 -22
-35 -32 -43 -9 -8 -23 -29 -31 -47 -8 -19 -20 -32 -31 -32 -20 0 -52 -33 -52
-53 0 -7 13 -33 28 -58 15 -24 34 -58 41 -75 7 -17 26 -41 42 -53 39 -29 33
-35 -18 -17 -41 15 -63 8 -63 -20 0 -6 -7 -14 -15 -18 -39 -15 6 -91 76 -127
35 -17 39 -23 33 -47 -10 -42 6 -20 61 85 l50 96 101 -2 c157 -3 221 29 310
154 59 82 335 433 412 523 145 169 214 283 248 411 8 31 26 124 39 206 36 223
56 328 66 347 5 9 9 28 9 42 0 13 5 26 11 28 6 2 21 57 34 123 42 217 140 551
170 585 22 25 57 26 78 2 8 -9 40 -78 70 -152 31 -74 66 -160 80 -190 13 -30
28 -70 32 -89 11 -51 26 -18 24 54 -2 145 44 304 108 375 149 163 298 293 372
326 43 19 49 26 54 61 9 51 21 61 95 74 72 13 93 32 102 96 9 56 -4 252 -25
379 -17 106 -19 150 -5 159 5 3 51 -12 102 -34 295 -125 488 -134 646 -31 88
57 149 125 345 384 179 238 382 495 482 611 65 76 69 83 55 100 -7 8 -7 15 -1
19 12 8 -1 56 -28 100 -26 41 -27 87 -3 115 25 31 157 82 228 88 40 4 84 0
127 -11 36 -9 78 -14 92 -10 27 7 124 132 407 524 70 97 157 209 194 250 36
41 71 85 77 98 13 28 2 38 -113 94 -47 22 -115 56 -151 74 -37 19 -71 34 -75
34 -5 0 -28 -18 -52 -40 -24 -22 -46 -40 -50 -40 -4 0 -18 9 -31 19 l-23 18
20 39 c11 21 34 52 50 68 l31 28 36 -22 c20 -12 38 -20 41 -18 2 3 21 -10 41
-28 58 -53 109 -86 140 -88 15 -2 39 -6 53 -10 l25 -7 -3 84 c-3 83 -4 83 -36
101 -18 10 -43 34 -56 54 -31 49 -96 102 -125 102 -14 0 -31 -11 -43 -27z
m226 -259 c12 -8 22 -19 22 -25 0 -11 -55 15 -65 31 -10 15 18 12 43 -6z
m-534 -30 c22 -9 20 -21 -5 -27 -12 -3 -18 -3 -15 0 3 4 1 12 -5 20 -13 14 -2
17 25 7z m101 -61 c-19 -32 -71 -96 -59 -73 11 22 67 100 71 100 2 0 -3 -12
-12 -27z m-3614 -1538 c53 -7 96 -13 124 -20 11 -2 43 -7 70 -10 28 -4 61 -14
75 -24 18 -13 32 -16 48 -10 13 5 21 5 18 0 -8 -12 32 -24 69 -22 17 2 41 3
55 4 21 2 25 -3 28 -30 2 -18 8 -33 14 -33 7 0 8 17 4 50 -6 45 -5 50 12 50
11 0 22 9 25 20 5 20 27 28 27 10 0 -5 -5 -10 -12 -10 -6 0 -2 -9 10 -20 12
-12 23 -33 24 -48 2 -42 5 -56 11 -72 11 -24 15 -110 7 -115 -20 -12 -40 9
-40 41 0 25 -4 34 -16 34 -13 0 -14 -3 -5 -14 8 -10 9 -16 1 -21 -5 -3 -10
-11 -10 -16 0 -6 5 -7 10 -4 6 3 10 2 10 -4 0 -17 -20 -23 -35 -11 -8 7 -15
27 -15 45 0 20 -5 32 -14 32 -10 0 -12 -11 -9 -41 3 -29 2 -37 -5 -27 -9 12
-13 12 -26 -2 -13 -12 -23 -14 -42 -7 -33 13 -57 13 -49 0 3 -5 2 -10 -4 -10
-5 0 -11 4 -13 10 -2 6 -15 6 -33 2 -23 -7 -33 -5 -43 7 -7 9 -12 12 -11 6 3
-15 -12 -45 -21 -45 -5 0 -12 9 -15 20 -9 27 -21 25 -50 -6 -14 -15 -25 -21
-25 -14 0 7 -8 10 -20 7 -12 -3 -20 0 -20 8 0 16 -32 14 -43 -3 -6 -8 -14 -9
-25 -3 -9 5 -26 5 -38 1 -34 -13 -122 31 -130 67 -3 15 -14 34 -22 41 -15 11
-14 20 2 100 10 48 23 90 30 94 6 4 25 6 41 3 17 -2 51 -7 76 -10z m1061 -37
c40 -55 55 -91 41 -95 -7 -3 -13 -13 -13 -23 0 -20 -54 -70 -75 -70 -13 0 -41
-39 -36 -50 1 -2 -2 -6 -7 -8 -6 -2 -15 13 -22 33 -6 20 -29 70 -51 112 -21
42 -39 83 -39 93 0 18 63 36 137 39 37 1 45 -3 65 -31z m-892 -2538 c0 -5 -2
-10 -4 -10 -3 0 -8 5 -11 10 -3 6 -1 10 4 10 6 0 11 -4 11 -10z m0 -39 c0 -6
-4 -13 -10 -16 -5 -3 -10 1 -10 9 0 9 5 16 10 16 6 0 10 -4 10 -9z"/>
<path d="M5032 5210 c0 -19 2 -27 5 -17 2 9 2 25 0 35 -3 9 -5 1 -5 -18z"/>
<path d="M4794 5079 c-16 -17 -16 -22 -4 -29 20 -13 23 -12 46 6 18 15 18 15
-4 10 -20 -4 -23 -1 -19 15 6 24 4 24 -19 -2z"/>
<path d="M4995 6984 c-178 -26 -258 -66 -371 -189 -49 -52 -90 -104 -90 -115
-2 -27 -18 -45 -59 -64 -28 -14 -37 -26 -54 -79 -23 -71 -27 -96 -18 -117 3
-8 11 -34 17 -57 5 -22 19 -52 29 -64 29 -35 47 -12 60 77 14 93 44 167 83
199 127 107 481 82 678 -47 59 -39 86 -79 100 -148 6 -30 20 -74 32 -96 l21
-42 25 37 c14 20 35 58 47 84 21 45 22 51 8 95 -11 36 -13 78 -9 181 6 146 0
173 -49 224 -71 74 -317 140 -450 121z"/>
<path d="M8085 6980 c-3 -5 -1 -10 4 -10 6 0 11 5 11 10 0 6 -2 10 -4 10 -3 0
-8 -4 -11 -10z"/>
<path d="M8041 6943 c-7 -8 -11 -16 -8 -19 2 -2 10 2 17 11 17 20 9 27 -9 8z"/>
<path d="M4734 6414 c-20 -19 -24 -31 -19 -52 12 -52 62 -69 89 -30 22 31 20
64 -4 88 -26 26 -36 25 -66 -6z"/>
<path d="M5080 6418 c-25 -28 -26 -62 0 -88 26 -26 55 -25 74 2 23 33 19 64
-10 87 -33 26 -38 26 -64 -1z"/>
<path d="M4905 6361 c-3 -6 -8 -52 -12 -104 l-6 -93 32 -14 c28 -11 34 -11 49
4 14 13 16 33 14 108 -2 58 -8 95 -15 100 -17 11 -55 10 -62 -1z"/>
<path d="M7530 6179 c0 -5 5 -7 10 -4 6 3 10 8 10 11 0 2 -4 4 -10 4 -5 0 -10
-5 -10 -11z"/>
<path d="M7695 6175 c-5 -2 -36 -11 -67 -19 -56 -16 -57 -17 -46 -42 8 -17 16
-23 27 -18 65 29 131 45 169 42 38 -3 42 -1 40 17 -3 17 -11 20 -58 22 -30 1
-59 0 -65 -2z"/>
<path d="M2475 6134 c22 -19 52 -49 68 -67 l27 -32 -2 35 c-3 31 -10 39 -58
67 -70 43 -85 41 -35 -3z"/>
<path d="M4985 6140 c-22 -25 -48 -25 -86 -3 -23 14 -31 15 -41 5 -18 -18 1
-44 43 -59 43 -14 78 -8 115 22 24 20 27 25 15 39 -17 21 -24 20 -46 -4z"/>
<path d="M4940 6039 c0 -5 9 -9 20 -9 11 0 20 2 20 4 0 2 -9 6 -20 9 -11 3
-20 1 -20 -4z"/>
<path d="M4910 6030 c0 -5 5 -10 11 -10 5 0 7 5 4 10 -3 6 -8 10 -11 10 -2 0
-4 -4 -4 -10z"/>
<path d="M2850 5983 c0 -4 26 -59 57 -121 l58 -114 27 31 c38 43 39 106 2 150
-29 35 -144 77 -144 54z"/>
<path d="M3880 5172 c0 -4 10 -9 22 -9 18 -2 20 0 8 7 -18 12 -30 13 -30 2z"/>
<path d="M4510 3069 c0 -5 5 -7 10 -4 6 3 10 8 10 11 0 2 -4 4 -10 4 -5 0 -10
-5 -10 -11z"/>
<path d="M4456 2435 c-9 -26 -7 -32 5 -12 6 10 9 21 6 23 -2 3 -7 -2 -11 -11z"/>
<path d="M5740 2367 c0 -5 -12 -7 -26 -4 -14 2 -43 1 -63 -4 -21 -5 -53 -9
-72 -10 -32 -2 -69 -9 -151 -30 -27 -7 -42 -19 -58 -47 -21 -36 -68 -72 -96
-72 -8 0 -14 -4 -14 -9 0 -5 -32 -17 -72 -27 -39 -10 -79 -26 -87 -35 -15 -14
-43 -29 -57 -28 -8 0 -84 -94 -84 -105 0 -5 -8 -16 -18 -25 -10 -9 -21 -24
-25 -33 -4 -11 -12 -15 -22 -12 -18 7 -20 -16 -2 -35 10 -11 9 -13 -5 -8 -12
4 -18 -2 -23 -24 -5 -23 2 -48 30 -107 21 -42 39 -90 41 -107 2 -16 11 -44 19
-62 14 -28 26 -97 41 -228 10 -82 44 -176 79 -213 18 -20 37 -34 40 -30 13 13
5 412 -8 420 -24 15 3 20 52 9 41 -9 63 -7 125 8 111 28 160 56 255 145 47 45
122 112 166 150 189 165 270 255 323 362 16 32 32 77 35 99 6 45 -5 87 -17 66
-6 -9 -11 -9 -21 -1 -9 8 -15 8 -20 0 -3 -6 -12 -7 -18 -3 -18 11 -247 11
-247 0z"/>
</g>
</svg>
